<svg width="500" height="500" xmlns="http://www.w3.org/2000/svg">
  <!-- Background -->
  <rect width="500" height="500" fill="#f8f9fa" rx="10" ry="10"/>
  
  <!-- Title -->
  <text x="250" y="30" font-family="Arial" font-size="20" text-anchor="middle" fill="#1E88E5">Facial Landmarks Detection</text>
  
  <!-- Face Outline -->
  <ellipse cx="250" cy="250" rx="150" ry="180" fill="none" stroke="#666" stroke-width="2"/>
  
  <!-- Eyes -->
  <!-- Left Eye -->
  <ellipse cx="190" cy="200" rx="30" ry="15" fill="none" stroke="#388E3C" stroke-width="2"/>
  <circle cx="170" cy="200" r="2" fill="#1976D2" stroke="#1976D2" stroke-width="1"/>
  <circle cx="180" cy="195" r="2" fill="#1976D2" stroke="#1976D2" stroke-width="1"/>
  <circle cx="190" cy="193" r="2" fill="#1976D2" stroke="#1976D2" stroke-width="1"/>
  <circle cx="200" cy="195" r="2" fill="#1976D2" stroke="#1976D2" stroke-width="1"/>
  <circle cx="210" cy="200" r="2" fill="#1976D2" stroke="#1976D2" stroke-width="1"/>
  <circle cx="200" cy="205" r="2" fill="#1976D2" stroke="#1976D2" stroke-width="1"/>
  <circle cx="190" cy="207" r="2" fill="#1976D2" stroke="#1976D2" stroke-width="1"/>
  <circle cx="180" cy="205" r="2" fill="#1976D2" stroke="#1976D2" stroke-width="1"/>
  
  <!-- Right Eye -->
  <ellipse cx="310" cy="200" rx="30" ry="15" fill="none" stroke="#388E3C" stroke-width="2"/>
  <circle cx="290" cy="200" r="2" fill="#1976D2" stroke="#1976D2" stroke-width="1"/>
  <circle cx="300" cy="195" r="2" fill="#1976D2" stroke="#1976D2" stroke-width="1"/>
  <circle cx="310" cy="193" r="2" fill="#1976D2" stroke="#1976D2" stroke-width="1"/>
  <circle cx="320" cy="195" r="2" fill="#1976D2" stroke="#1976D2" stroke-width="1"/>
  <circle cx="330" cy="200" r="2" fill="#1976D2" stroke="#1976D2" stroke-width="1"/>
  <circle cx="320" cy="205" r="2" fill="#1976D2" stroke="#1976D2" stroke-width="1"/>
  <circle cx="310" cy="207" r="2" fill="#1976D2" stroke="#1976D2" stroke-width="1"/>
  <circle cx="300" cy="205" r="2" fill="#1976D2" stroke="#1976D2" stroke-width="1"/>
  
  <!-- Eyebrows -->
  <!-- Left Eyebrow -->
  <path d="M160,180 Q190,165 220,180" fill="none" stroke="#388E3C" stroke-width="2"/>
  <circle cx="160" cy="180" r="2" fill="#FBC02D" stroke="#FBC02D" stroke-width="1"/>
  <circle cx="175" cy="172" r="2" fill="#FBC02D" stroke="#FBC02D" stroke-width="1"/>
  <circle cx="190" cy="165" r="2" fill="#FBC02D" stroke="#FBC02D" stroke-width="1"/>
  <circle cx="205" cy="172" r="2" fill="#FBC02D" stroke="#FBC02D" stroke-width="1"/>
  <circle cx="220" cy="180" r="2" fill="#FBC02D" stroke="#FBC02D" stroke-width="1"/>
  
  <!-- Right Eyebrow -->
  <path d="M280,180 Q310,165 340,180" fill="none" stroke="#388E3C" stroke-width="2"/>
  <circle cx="280" cy="180" r="2" fill="#FBC02D" stroke="#FBC02D" stroke-width="1"/>
  <circle cx="295" cy="172" r="2" fill="#FBC02D" stroke="#FBC02D" stroke-width="1"/>
  <circle cx="310" cy="165" r="2" fill="#FBC02D" stroke="#FBC02D" stroke-width="1"/>
  <circle cx="325" cy="172" r="2" fill="#FBC02D" stroke="#FBC02D" stroke-width="1"/>
  <circle cx="340" cy="180" r="2" fill="#FBC02D" stroke="#FBC02D" stroke-width="1"/>
  
  <!-- Nose -->
  <path d="M250,210 L240,260 L250,270 L260,260 Z" fill="none" stroke="#388E3C" stroke-width="2"/>
  <circle cx="250" cy="210" r="2" fill="#E64A19" stroke="#E64A19" stroke-width="1"/>
  <circle cx="245" cy="230" r="2" fill="#E64A19" stroke="#E64A19" stroke-width="1"/>
  <circle cx="240" cy="260" r="2" fill="#E64A19" stroke="#E64A19" stroke-width="1"/>
  <circle cx="245" cy="265" r="2" fill="#E64A19" stroke="#E64A19" stroke-width="1"/>
  <circle cx="250" cy="270" r="2" fill="#E64A19" stroke="#E64A19" stroke-width="1"/>
  <circle cx="255" cy="265" r="2" fill="#E64A19" stroke="#E64A19" stroke-width="1"/>
  <circle cx="260" cy="260" r="2" fill="#E64A19" stroke="#E64A19" stroke-width="1"/>
  <circle cx="255" cy="230" r="2" fill="#E64A19" stroke="#E64A19" stroke-width="1"/>
  
  <!-- Mouth -->
  <path d="M180,320 Q250,350 320,320" fill="none" stroke="#388E3C" stroke-width="2"/>
  <path d="M180,320 Q250,300 320,320" fill="none" stroke="#388E3C" stroke-width="2"/>
  <circle cx="180" cy="320" r="2" fill="#C2185B" stroke="#C2185B" stroke-width="1"/>
  <circle cx="200" cy="315" r="2" fill="#C2185B" stroke="#C2185B" stroke-width="1"/>
  <circle cx="220" cy="312" r="2" fill="#C2185B" stroke="#C2185B" stroke-width="1"/>
  <circle cx="250" cy="310" r="2" fill="#C2185B" stroke="#C2185B" stroke-width="1"/>
  <circle cx="280" cy="312" r="2" fill="#C2185B" stroke="#C2185B" stroke-width="1"/>
  <circle cx="300" cy="315" r="2" fill="#C2185B" stroke="#C2185B" stroke-width="1"/>
  <circle cx="320" cy="320" r="2" fill="#C2185B" stroke="#C2185B" stroke-width="1"/>
  <circle cx="200" cy="325" r="2" fill="#C2185B" stroke="#C2185B" stroke-width="1"/>
  <circle cx="220" cy="328" r="2" fill="#C2185B" stroke="#C2185B" stroke-width="1"/>
  <circle cx="250" cy="330" r="2" fill="#C2185B" stroke="#C2185B" stroke-width="1"/>
  <circle cx="280" cy="328" r="2" fill="#C2185B" stroke="#C2185B" stroke-width="1"/>
  <circle cx="300" cy="325" r="2" fill="#C2185B" stroke="#C2185B" stroke-width="1"/>
  
  <!-- Jaw line -->
  <path d="M130,240 Q150,350 250,380 Q350,350 370,240" fill="none" stroke="#666" stroke-width="2"/>
  <circle cx="130" cy="240" r="2" fill="#666" stroke="#666" stroke-width="1"/>
  <circle cx="145" cy="280" r="2" fill="#666" stroke="#666" stroke-width="1"/>
  <circle cx="160" cy="320" r="2" fill="#666" stroke="#666" stroke-width="1"/>
  <circle cx="180" cy="350" r="2" fill="#666" stroke="#666" stroke-width="1"/>
  <circle cx="210" cy="370" r="2" fill="#666" stroke="#666" stroke-width="1"/>
  <circle cx="250" cy="380" r="2" fill="#666" stroke="#666" stroke-width="1"/>
  <circle cx="290" cy="370" r="2" fill="#666" stroke="#666" stroke-width="1"/>
  <circle cx="320" cy="350" r="2" fill="#666" stroke="#666" stroke-width="1"/>
  <circle cx="340" cy="320" r="2" fill="#666" stroke="#666" stroke-width="1"/>
  <circle cx="355" cy="280" r="2" fill="#666" stroke="#666" stroke-width="1"/>
  <circle cx="370" cy="240" r="2" fill="#666" stroke="#666" stroke-width="1"/>
  
  <!-- Legend -->
  <circle cx="40" cy="430" r="4" fill="#1976D2" stroke="#1976D2" stroke-width="1"/>
  <text x="50" y="433" font-family="Arial" font-size="12" fill="#333">Eye landmarks (12 points)</text>
  
  <circle cx="40" cy="450" r="4" fill="#FBC02D" stroke="#FBC02D" stroke-width="1"/>
  <text x="50" y="453" font-family="Arial" font-size="12" fill="#333">Eyebrow landmarks (10 points)</text>
  
  <circle cx="40" cy="470" r="4" fill="#E64A19" stroke="#E64A19" stroke-width="1"/>
  <text x="50" y="473" font-family="Arial" font-size="12" fill="#333">Nose landmarks (9 points)</text>
  
  <circle cx="200" cy="430" r="4" fill="#C2185B" stroke="#C2185B" stroke-width="1"/>
  <text x="210" y="433" font-family="Arial" font-size="12" fill="#333">Mouth landmarks (20 points)</text>
  
  <circle cx="200" cy="450" r="4" fill="#666" stroke="#666" stroke-width="1"/>
  <text x="210" y="453" font-family="Arial" font-size="12" fill="#333">Jawline landmarks (17 points)</text>
  
  <text x="250" y="490" font-family="Arial" font-size="14" text-anchor="middle" fill="#1E88E5">Total: 68 Facial Landmarks</text>
</svg>
